<?xml version="1.0" standalone="no"?>
<!DOCTYPE svg PUBLIC "-//W3C//DTD SVG 20010904//EN"
 "http://www.w3.org/TR/2001/REC-SVG-20010904/DTD/svg10.dtd">
<svg version="1.0" xmlns="http://www.w3.org/2000/svg"
 width="261.000000pt" height="261.000000pt" viewBox="0 0 261.000000 261.000000"
 preserveAspectRatio="xMidYMid meet">
<metadata>
Created by potrace 1.11, written by Peter Selinger 2001-2013
</metadata>
<g transform="translate(0.000000,261.000000) scale(0.100000,-0.100000)"
fill="#000000" stroke="none">
<path d="M635 2039 c-33 -5 -94 -20 -135 -35 -450 -158 -635 -677 -389 -1091
45 -75 160 -190 235 -236 80 -48 180 -86 274 -103 116 -21 1244 -20 1366 1
163 29 278 89 399 210 93 93 135 161 178 282 42 121 50 288 18 414 -54 217
-196 392 -396 489 -158 77 -124 73 -845 76 -355 1 -672 -2 -705 -7z m407 -719
c54 -162 101 -303 104 -312 5 -16 -4 -18 -88 -18 l-93 0 -18 60 -17 60 -105 0
-105 0 -17 -60 -16 -60 -93 0 -93 0 14 43 c76 234 188 574 192 580 3 4 57 6
120 5 l116 -3 99 -295z m599 285 c87 -31 138 -108 139 -208 0 -73 -17 -113
-68 -159 -49 -44 -93 -58 -189 -58 l-73 0 0 -95 0 -95 -85 0 -85 0 0 315 0
315 159 0 c117 0 170 -4 202 -15z m439 -300 l0 -315 -85 0 -85 0 0 315 0 315
85 0 85 0 0 -315z"/>
<path d="M793 1348 l-30 -103 60 -3 c32 -2 61 -1 63 0 3 4 -53 198 -59 205 -2
2 -17 -43 -34 -99z"/>
<path d="M1450 1394 l0 -86 57 4 c68 6 93 30 93 89 0 57 -26 79 -95 79 l-55 0
0 -86z"/>
</g>
</svg>
